<svg xmlns="http://www.w3.org/2000/svg" viewBox="0 0 128 128" role="img" aria-labelledby="title desc">
  <title id="title">水枢 · Cogiens</title>
  <desc id="desc">Cogiens orange and blue C-shaped workforce mark.</desc>
  <defs>
    <linearGradient id="blue" x1="20" y1="38" x2="106" y2="105" gradientUnits="userSpaceOnUse">
      <stop offset="0" stop-color="#0047B8"/>
      <stop offset="0.48" stop-color="#007FEA"/>
      <stop offset="1" stop-color="#00B9F2"/>
    </linearGradient>
    <linearGradient id="blue2" x1="52" y1="17" x2="112" y2="62" gradientUnits="userSpaceOnUse">
      <stop offset="0" stop-color="#006CD8"/>
      <stop offset="1" stop-color="#00C1F4"/>
    </linearGradient>
    <linearGradient id="orange" x1="26" y1="65" x2="95" y2="18" gradientUnits="userSpaceOnUse">
      <stop offset="0" stop-color="#FF5A00"/>
      <stop offset="0.52" stop-color="#FF8500"/>
      <stop offset="1" stop-color="#FFAA00"/>
    </linearGradient>
    <filter id="soft" x="-20%" y="-20%" width="140%" height="140%">
      <feDropShadow dx="0" dy="3" stdDeviation="3" flood-color="#0D2C54" flood-opacity="0.16"/>
    </filter>
  </defs>
  <g filter="url(#soft)">
    <path fill="url(#blue)" d="M108 76c-8 22-29 37-53 35-25-2-44-20-45-44-1-23 13-42 34-50 17-7 36-5 51 4L83 42c-9-5-20-6-29-2-11 4-19 14-19 27 0 14 10 25 24 27 13 2 26-5 32-18h17Z"/>
    <path fill="url(#blue2)" d="M55 18c20-4 42 2 57 17 5 5 8 10 10 16-7 8-16 13-27 14-5-9-13-16-23-20-8-3-17-3-25 0l8-27Z"/>
    <path fill="url(#orange)" d="M22 72C14 48 25 25 47 15c18-9 40-8 57 2-3 12-10 22-21 29-10-7-23-10-35-6-13 4-22 15-25 32H22Z"/>
    <path fill="#69D9FA" opacity="0.48" d="M89 83c-7 10-18 16-30 14-9-1-16-6-21-13 7 5 15 7 23 6 10-1 18-6 24-14l4 7Z"/>
  </g>
</svg>
